ISO-10303-21;
HEADER;
/* Generated by software containing ST-Developer
 * from STEP Tools, Inc. (www.steptools.com) 
 */

FILE_DESCRIPTION(
/* description */ (''),
/* implementation_level */ '2;1');

FILE_NAME(
/* name */ 'Bending_pipe.step',
/* time_stamp */ '2026-05-30T14:41:54+09:00',
/* author */ (''),
/* organization */ (''),
/* preprocessor_version */ 'ST-DEVELOPER v20.1',
/* originating_system */ 'Autodesk Translation Framework v14.10.0.0',
/* authorisation */ '');

FILE_SCHEMA (('AUTOMOTIVE_DESIGN { 1 0 10303 214 3 1 1 }'));
ENDSEC;

DATA;
#10=MECHANICAL_DESIGN_GEOMETRIC_PRESENTATION_REPRESENTATION('',(#13),#817);
#11=SHAPE_REPRESENTATION_RELATIONSHIP('SRR','None',#824,#12);
#12=ADVANCED_BREP_SHAPE_REPRESENTATION('',(#14),#816);
#13=STYLED_ITEM('',(#833),#14);
#14=MANIFOLD_SOLID_BREP('Body1',#312);
#15=(
BOUNDED_SURFACE()
B_SPLINE_SURFACE(2,2,((#786,#787,#788,#789,#790,#791,#792,#793,#794),(#795,
#796,#797,#798,#799,#800,#801,#802,#803),(#804,#805,#806,#807,#808,#809,
#810,#811,#812)),.UNSPECIFIED.,.F.,.T.,.F.)
B_SPLINE_SURFACE_WITH_KNOTS((3,3),(3,2,2,2,3),(-0.394791119699758,1.70803542250024E-16),
(-3.14159265358979,-1.5707963267949,0.,1.5707963267949,3.14159265358979),
 .UNSPECIFIED.)
GEOMETRIC_REPRESENTATION_ITEM()
RATIONAL_B_SPLINE_SURFACE(((1.,0.707106781186548,1.,0.707106781186548,1.,
0.707106781186548,1.,0.707106781186548,1.),(0.980580675690814,0.693375245281461,
0.980580675690814,0.693375245281461,0.980580675690814,0.693375245281461,
0.980580675690814,0.693375245281461,0.980580675690814),(1.,0.707106781186548,
1.,0.707106781186548,1.,0.707106781186548,1.,0.707106781186548,1.)))
REPRESENTATION_ITEM('')
SURFACE()
);
#16=CONICAL_SURFACE('',#366,7.7,0.0458012797815739);
#17=B_SPLINE_CURVE_WITH_KNOTS('',3,(#622,#623,#624,#625,#626,#627,#628,
#629,#630,#631,#632,#633,#634,#635,#636,#637),.UNSPECIFIED.,.F.,.F.,(4,
3,3,3,3,4),(-0.00755510385028768,1.21430643318376E-17,0.0427606730408577,
0.0734835682356161,0.11733546169542,0.121745827782525),.UNSPECIFIED.);
#18=B_SPLINE_CURVE_WITH_KNOTS('',3,(#639,#640,#641,#642,#643,#644,#645,
#646,#647,#648,#649,#650,#651,#652,#653,#654,#655,#656,#657),
 .UNSPECIFIED.,.F.,.F.,(4,3,3,3,3,3,4),(0.121745827782525,0.131413126265514,
0.175181551105514,0.192383102099535,0.235130464567849,0.24347120937493,
0.251026378109924),.UNSPECIFIED.);
#19=B_SPLINE_SURFACE_WITH_KNOTS('',3,3,((#543,#544,#545,#546,#547,#548,
#549,#550,#551),(#552,#553,#554,#555,#556,#557,#558,#559,#560),(#561,#562,
#563,#564,#565,#566,#567,#568,#569),(#570,#571,#572,#573,#574,#575,#576,
#577,#578)),.UNSPECIFIED.,.F.,.F.,.F.,(4,4),(4,1,1,1,1,1,4),(0.,1.),(-1.5707963267949,
-1.12199737628207,-0.224399475256414,0.224399475256414,0.673198425769241,
1.12199737628207,1.5707963267949),.UNSPECIFIED.);
#20=B_SPLINE_SURFACE_WITH_KNOTS('',3,3,((#580,#581,#582,#583,#584,#585,
#586,#587,#588,#589),(#590,#591,#592,#593,#594,#595,#596,#597,#598,#599),
(#600,#601,#602,#603,#604,#605,#606,#607,#608,#609),(#610,#611,#612,#613,
#614,#615,#616,#617,#618,#619)),.UNSPECIFIED.,.F.,.F.,.F.,(4,4),(4,1,1,
1,1,1,1,4),(0.,1.),(-1.5707963267949,-1.12199737628207,-0.897597901025655,
-0.224399475256414,0.224399475256414,0.673198425769241,1.12199737628207,
1.5707963267949),.UNSPECIFIED.);
#21=B_SPLINE_SURFACE_WITH_KNOTS('',3,3,((#670,#671,#672,#673,#674,#675,
#676,#677,#678,#679),(#680,#681,#682,#683,#684,#685,#686,#687,#688,#689),
(#690,#691,#692,#693,#694,#695,#696,#697,#698,#699),(#700,#701,#702,#703,
#704,#705,#706,#707,#708,#709),(#710,#711,#712,#713,#714,#715,#716,#717,
#718,#719)),.UNSPECIFIED.,.F.,.F.,.F.,(4,1,4),(4,1,1,1,1,1,1,4),(0.,0.571428571428571,
1.),(-1.5707963267949,-1.12199737628207,-0.673198425769241,-0.224399475256414,
0.224399475256414,0.673198425769241,1.12199737628207,1.5707963267949),
 .UNSPECIFIED.);
#22=B_SPLINE_SURFACE_WITH_KNOTS('',3,3,((#730,#731,#732,#733,#734,#735,
#736,#737,#738,#739),(#740,#741,#742,#743,#744,#745,#746,#747,#748,#749),
(#750,#751,#752,#753,#754,#755,#756,#757,#758,#759),(#760,#761,#762,#763,
#764,#765,#766,#767,#768,#769),(#770,#771,#772,#773,#774,#775,#776,#777,
#778,#779)),.UNSPECIFIED.,.F.,.F.,.F.,(4,1,4),(4,1,1,1,1,1,1,4),(0.,0.5,
1.),(-1.5707963267949,-1.12199737628207,-0.673198425769241,-0.224399475256414,
0.224399475256414,0.673198425769241,1.12199737628207,1.5707963267949),
 .UNSPECIFIED.);
#23=LINE('',#507,#29);
#24=LINE('',#516,#30);
#25=LINE('',#531,#31);
#26=LINE('',#541,#32);
#27=LINE('',#669,#33);
#28=LINE('',#728,#34);
#29=VECTOR('',#400,9.75);
#30=VECTOR('',#411,8.25);
#31=VECTOR('',#430,7.);
#32=VECTOR('',#443,8.75);
#33=VECTOR('',#466,7.7);
#34=VECTOR('',#477,9.75);
#35=ELLIPSE('',#333,14.9152969524799,9.75);
#36=ELLIPSE('',#334,9.75054989755467,9.75);
#37=ELLIPSE('',#335,14.9152969524799,9.75);
#38=ELLIPSE('',#350,7.29995355336904,7.);
#39=ELLIPSE('',#351,7.93078828966949,7.);
#40=ELLIPSE('',#357,7.29995355336905,7.);
#41=ELLIPSE('',#358,7.93078828966949,7.);
#42=ELLIPSE('',#359,7.93078828966949,7.);
#43=ELLIPSE('',#367,14.9152969524799,9.75);
#44=ELLIPSE('',#368,14.9152969524799,9.75);
#45=ELLIPSE('',#372,9.75054989755467,9.75);
#46=CYLINDRICAL_SURFACE('',#332,9.75);
#47=CYLINDRICAL_SURFACE('',#340,8.25);
#48=CYLINDRICAL_SURFACE('',#349,7.);
#49=CYLINDRICAL_SURFACE('',#355,8.75);
#50=CYLINDRICAL_SURFACE('',#360,7.);
#51=CYLINDRICAL_SURFACE('',#369,9.75);
#52=FACE_BOUND('',#78,.T.);
#53=FACE_BOUND('',#84,.T.);
#54=PLANE('',#330);
#55=PLANE('',#347);
#56=FACE_OUTER_BOUND('',#76,.T.);
#57=FACE_OUTER_BOUND('',#77,.T.);
#58=FACE_OUTER_BOUND('',#79,.T.);
#59=FACE_OUTER_BOUND('',#80,.T.);
#60=FACE_OUTER_BOUND('',#81,.T.);
#61=FACE_OUTER_BOUND('',#82,.T.);
#62=FACE_OUTER_BOUND('',#83,.T.);
#63=FACE_OUTER_BOUND('',#85,.T.);
#64=FACE_OUTER_BOUND('',#86,.T.);
#65=FACE_OUTER_BOUND('',#87,.T.);
#66=FACE_OUTER_BOUND('',#88,.T.);
#67=FACE_OUTER_BOUND('',#89,.T.);
#68=FACE_OUTER_BOUND('',#90,.T.);
#69=FACE_OUTER_BOUND('',#91,.T.);
#70=FACE_OUTER_BOUND('',#92,.T.);
#71=FACE_OUTER_BOUND('',#93,.T.);
#72=FACE_OUTER_BOUND('',#94,.T.);
#73=FACE_OUTER_BOUND('',#95,.T.);
#74=FACE_OUTER_BOUND('',#96,.T.);
#75=FACE_OUTER_BOUND('',#97,.T.);
#76=EDGE_LOOP('',(#196,#197,#198,#199));
#77=EDGE_LOOP('',(#200));
#78=EDGE_LOOP('',(#201));
#79=EDGE_LOOP('',(#202,#203,#204,#205,#206,#207));
#80=EDGE_LOOP('',(#208,#209,#210,#211,#212));
#81=EDGE_LOOP('',(#213,#214,#215,#216,#217));
#82=EDGE_LOOP('',(#218,#219,#220,#221,#222));
#83=EDGE_LOOP('',(#223));
#84=EDGE_LOOP('',(#224));
#85=EDGE_LOOP('',(#225,#226,#227,#228,#229,#230));
#86=EDGE_LOOP('',(#231,#232,#233,#234));
#87=EDGE_LOOP('',(#235,#236,#237,#238));
#88=EDGE_LOOP('',(#239,#240));
#89=EDGE_LOOP('',(#241,#242,#243,#244,#245));
#90=EDGE_LOOP('',(#246,#247,#248,#249));
#91=EDGE_LOOP('',(#250,#251,#252,#253,#254,#255,#256));
#92=EDGE_LOOP('',(#257,#258,#259,#260,#261));
#93=EDGE_LOOP('',(#262,#263,#264,#265));
#94=EDGE_LOOP('',(#266,#267,#268,#269,#270,#271,#272));
#95=EDGE_LOOP('',(#273,#274));
#96=EDGE_LOOP('',(#275,#276,#277,#278,#279));
#97=EDGE_LOOP('',(#280,#281,#282,#283,#284,#285));
#98=CIRCLE('',#327,9.75);
#99=CIRCLE('',#328,0.5);
#100=CIRCLE('',#329,9.25);
#101=CIRCLE('',#331,8.75);
#102=CIRCLE('',#337,0.5);
#103=CIRCLE('',#338,8.25);
#104=CIRCLE('',#339,8.25);
#105=CIRCLE('',#341,8.25);
#106=CIRCLE('',#343,7.5);
#107=CIRCLE('',#344,0.5);
#108=CIRCLE('',#345,7.);
#109=CIRCLE('',#346,7.);
#110=CIRCLE('',#348,8.25);
#111=CIRCLE('',#353,0.5);
#112=CIRCLE('',#354,8.75);
#113=CIRCLE('',#356,8.75);
#114=CIRCLE('',#361,7.);
#115=CIRCLE('',#363,0.45);
#116=CIRCLE('',#364,7.15);
#117=CIRCLE('',#365,7.15);
#118=CIRCLE('',#370,9.74999999999999);
#119=CIRCLE('',#371,9.74999999999999);
#120=CIRCLE('',#374,9.24999999999999);
#121=CIRCLE('',#375,9.24999999999999);
#122=CIRCLE('',#376,6.5);
#123=CIRCLE('',#377,6.5);
#124=VERTEX_POINT('',#492);
#125=VERTEX_POINT('',#494);
#126=VERTEX_POINT('',#498);
#127=VERTEX_POINT('',#501);
#128=VERTEX_POINT('',#502);
#129=VERTEX_POINT('',#504);
#130=VERTEX_POINT('',#509);
#131=VERTEX_POINT('',#511);
#132=VERTEX_POINT('',#515);
#133=VERTEX_POINT('',#519);
#134=VERTEX_POINT('',#521);
#135=VERTEX_POINT('',#523);
#136=VERTEX_POINT('',#527);
#137=VERTEX_POINT('',#530);
#138=VERTEX_POINT('',#532);
#139=VERTEX_POINT('',#536);
#140=VERTEX_POINT('',#540);
#141=VERTEX_POINT('',#620);
#142=VERTEX_POINT('',#621);
#143=VERTEX_POINT('',#638);
#144=VERTEX_POINT('',#663);
#145=VERTEX_POINT('',#665);
#146=VERTEX_POINT('',#720);
#147=VERTEX_POINT('',#724);
#148=VERTEX_POINT('',#725);
#149=VERTEX_POINT('',#781);
#150=VERTEX_POINT('',#782);
#151=EDGE_CURVE('',#124,#124,#98,.T.);
#152=EDGE_CURVE('',#124,#125,#99,.T.);
#153=EDGE_CURVE('',#125,#125,#100,.T.);
#154=EDGE_CURVE('',#126,#126,#101,.T.);
#155=EDGE_CURVE('',#127,#128,#35,.T.);
#156=EDGE_CURVE('',#129,#127,#36,.T.);
#157=EDGE_CURVE('',#128,#129,#37,.T.);
#158=EDGE_CURVE('',#128,#124,#23,.T.);
#159=EDGE_CURVE('',#126,#130,#102,.T.);
#160=EDGE_CURVE('',#130,#131,#103,.T.);
#161=EDGE_CURVE('',#131,#130,#104,.T.);
#162=EDGE_CURVE('',#131,#132,#24,.T.);
#163=EDGE_CURVE('',#132,#132,#105,.T.);
#164=EDGE_CURVE('',#133,#133,#106,.T.);
#165=EDGE_CURVE('',#133,#134,#107,.T.);
#166=EDGE_CURVE('',#134,#135,#108,.T.);
#167=EDGE_CURVE('',#135,#134,#109,.T.);
#168=EDGE_CURVE('',#136,#136,#110,.T.);
#169=EDGE_CURVE('',#135,#137,#25,.T.);
#170=EDGE_CURVE('',#138,#137,#38,.T.);
#171=EDGE_CURVE('',#137,#138,#39,.T.);
#172=EDGE_CURVE('',#136,#139,#111,.T.);
#173=EDGE_CURVE('',#139,#139,#112,.T.);
#174=EDGE_CURVE('',#139,#140,#26,.T.);
#175=EDGE_CURVE('',#140,#140,#113,.T.);
#176=EDGE_CURVE('',#137,#138,#40,.T.);
#177=EDGE_CURVE('',#141,#142,#17,.T.);
#178=EDGE_CURVE('',#142,#143,#18,.T.);
#179=EDGE_CURVE('',#143,#137,#41,.T.);
#180=EDGE_CURVE('',#138,#141,#42,.T.);
#181=EDGE_CURVE('',#141,#143,#114,.T.);
#182=EDGE_CURVE('',#142,#144,#115,.T.);
#183=EDGE_CURVE('',#145,#144,#116,.T.);
#184=EDGE_CURVE('',#144,#145,#117,.T.);
#185=EDGE_CURVE('',#132,#145,#27,.T.);
#186=EDGE_CURVE('',#129,#146,#43,.T.);
#187=EDGE_CURVE('',#146,#127,#44,.T.);
#188=EDGE_CURVE('',#147,#148,#118,.T.);
#189=EDGE_CURVE('',#148,#147,#119,.T.);
#190=EDGE_CURVE('',#148,#146,#28,.T.);
#191=EDGE_CURVE('',#127,#129,#45,.T.);
#192=EDGE_CURVE('',#149,#150,#120,.T.);
#193=EDGE_CURVE('',#150,#149,#121,.T.);
#194=EDGE_CURVE('',#149,#140,#122,.T.);
#195=EDGE_CURVE('',#147,#150,#123,.T.);
#196=ORIENTED_EDGE('',*,*,#151,.T.);
#197=ORIENTED_EDGE('',*,*,#152,.T.);
#198=ORIENTED_EDGE('',*,*,#153,.T.);
#199=ORIENTED_EDGE('',*,*,#152,.F.);
#200=ORIENTED_EDGE('',*,*,#153,.F.);
#201=ORIENTED_EDGE('',*,*,#154,.F.);
#202=ORIENTED_EDGE('',*,*,#155,.F.);
#203=ORIENTED_EDGE('',*,*,#156,.F.);
#204=ORIENTED_EDGE('',*,*,#157,.F.);
#205=ORIENTED_EDGE('',*,*,#158,.T.);
#206=ORIENTED_EDGE('',*,*,#151,.F.);
#207=ORIENTED_EDGE('',*,*,#158,.F.);
#208=ORIENTED_EDGE('',*,*,#154,.T.);
#209=ORIENTED_EDGE('',*,*,#159,.T.);
#210=ORIENTED_EDGE('',*,*,#160,.T.);
#211=ORIENTED_EDGE('',*,*,#161,.T.);
#212=ORIENTED_EDGE('',*,*,#159,.F.);
#213=ORIENTED_EDGE('',*,*,#161,.F.);
#214=ORIENTED_EDGE('',*,*,#162,.T.);
#215=ORIENTED_EDGE('',*,*,#163,.F.);
#216=ORIENTED_EDGE('',*,*,#162,.F.);
#217=ORIENTED_EDGE('',*,*,#160,.F.);
#218=ORIENTED_EDGE('',*,*,#164,.T.);
#219=ORIENTED_EDGE('',*,*,#165,.T.);
#220=ORIENTED_EDGE('',*,*,#166,.T.);
#221=ORIENTED_EDGE('',*,*,#167,.T.);
#222=ORIENTED_EDGE('',*,*,#165,.F.);
#223=ORIENTED_EDGE('',*,*,#168,.F.);
#224=ORIENTED_EDGE('',*,*,#164,.F.);
#225=ORIENTED_EDGE('',*,*,#167,.F.);
#226=ORIENTED_EDGE('',*,*,#169,.T.);
#227=ORIENTED_EDGE('',*,*,#170,.F.);
#228=ORIENTED_EDGE('',*,*,#171,.F.);
#229=ORIENTED_EDGE('',*,*,#169,.F.);
#230=ORIENTED_EDGE('',*,*,#166,.F.);
#231=ORIENTED_EDGE('',*,*,#168,.T.);
#232=ORIENTED_EDGE('',*,*,#172,.T.);
#233=ORIENTED_EDGE('',*,*,#173,.T.);
#234=ORIENTED_EDGE('',*,*,#172,.F.);
#235=ORIENTED_EDGE('',*,*,#173,.F.);
#236=ORIENTED_EDGE('',*,*,#174,.T.);
#237=ORIENTED_EDGE('',*,*,#175,.F.);
#238=ORIENTED_EDGE('',*,*,#174,.F.);
#239=ORIENTED_EDGE('',*,*,#170,.T.);
#240=ORIENTED_EDGE('',*,*,#176,.T.);
#241=ORIENTED_EDGE('',*,*,#177,.T.);
#242=ORIENTED_EDGE('',*,*,#178,.T.);
#243=ORIENTED_EDGE('',*,*,#179,.T.);
#244=ORIENTED_EDGE('',*,*,#171,.T.);
#245=ORIENTED_EDGE('',*,*,#180,.T.);
#246=ORIENTED_EDGE('',*,*,#179,.F.);
#247=ORIENTED_EDGE('',*,*,#181,.F.);
#248=ORIENTED_EDGE('',*,*,#180,.F.);
#249=ORIENTED_EDGE('',*,*,#176,.F.);
#250=ORIENTED_EDGE('',*,*,#177,.F.);
#251=ORIENTED_EDGE('',*,*,#181,.T.);
#252=ORIENTED_EDGE('',*,*,#178,.F.);
#253=ORIENTED_EDGE('',*,*,#182,.T.);
#254=ORIENTED_EDGE('',*,*,#183,.F.);
#255=ORIENTED_EDGE('',*,*,#184,.F.);
#256=ORIENTED_EDGE('',*,*,#182,.F.);
#257=ORIENTED_EDGE('',*,*,#163,.T.);
#258=ORIENTED_EDGE('',*,*,#185,.T.);
#259=ORIENTED_EDGE('',*,*,#183,.T.);
#260=ORIENTED_EDGE('',*,*,#184,.T.);
#261=ORIENTED_EDGE('',*,*,#185,.F.);
#262=ORIENTED_EDGE('',*,*,#186,.T.);
#263=ORIENTED_EDGE('',*,*,#187,.T.);
#264=ORIENTED_EDGE('',*,*,#155,.T.);
#265=ORIENTED_EDGE('',*,*,#157,.T.);
#266=ORIENTED_EDGE('',*,*,#188,.F.);
#267=ORIENTED_EDGE('',*,*,#189,.F.);
#268=ORIENTED_EDGE('',*,*,#190,.T.);
#269=ORIENTED_EDGE('',*,*,#186,.F.);
#270=ORIENTED_EDGE('',*,*,#191,.F.);
#271=ORIENTED_EDGE('',*,*,#187,.F.);
#272=ORIENTED_EDGE('',*,*,#190,.F.);
#273=ORIENTED_EDGE('',*,*,#191,.T.);
#274=ORIENTED_EDGE('',*,*,#156,.T.);
#275=ORIENTED_EDGE('',*,*,#192,.T.);
#276=ORIENTED_EDGE('',*,*,#193,.T.);
#277=ORIENTED_EDGE('',*,*,#194,.T.);
#278=ORIENTED_EDGE('',*,*,#175,.T.);
#279=ORIENTED_EDGE('',*,*,#194,.F.);
#280=ORIENTED_EDGE('',*,*,#188,.T.);
#281=ORIENTED_EDGE('',*,*,#189,.T.);
#282=ORIENTED_EDGE('',*,*,#195,.T.);
#283=ORIENTED_EDGE('',*,*,#192,.F.);
#284=ORIENTED_EDGE('',*,*,#193,.F.);
#285=ORIENTED_EDGE('',*,*,#195,.F.);
#286=TOROIDAL_SURFACE('',#326,9.25,0.5);
#287=TOROIDAL_SURFACE('',#336,8.75,0.5);
#288=TOROIDAL_SURFACE('',#342,7.5,0.5);
#289=TOROIDAL_SURFACE('',#352,8.25,0.5);
#290=TOROIDAL_SURFACE('',#362,7.45,0.45);
#291=TOROIDAL_SURFACE('',#373,15.25,6.5);
#292=ADVANCED_FACE('',(#56),#286,.T.);
#293=ADVANCED_FACE('',(#57,#52),#54,.F.);
#294=ADVANCED_FACE('',(#58),#46,.T.);
#295=ADVANCED_FACE('',(#59),#287,.T.);
#296=ADVANCED_FACE('',(#60),#47,.F.);
#297=ADVANCED_FACE('',(#61),#288,.T.);
#298=ADVANCED_FACE('',(#62,#53),#55,.T.);
#299=ADVANCED_FACE('',(#63),#48,.F.);
#300=ADVANCED_FACE('',(#64),#289,.T.);
#301=ADVANCED_FACE('',(#65),#49,.T.);
#302=ADVANCED_FACE('',(#66),#19,.T.);
#303=ADVANCED_FACE('',(#67),#20,.F.);
#304=ADVANCED_FACE('',(#68),#50,.F.);
#305=ADVANCED_FACE('',(#69),#290,.T.);
#306=ADVANCED_FACE('',(#70),#16,.F.);
#307=ADVANCED_FACE('',(#71),#21,.T.);
#308=ADVANCED_FACE('',(#72),#51,.T.);
#309=ADVANCED_FACE('',(#73),#22,.F.);
#310=ADVANCED_FACE('',(#74),#291,.F.);
#311=ADVANCED_FACE('',(#75),#15,.T.);
#312=CLOSED_SHELL('',(#292,#293,#294,#295,#296,#297,#298,#299,#300,#301,
#302,#303,#304,#305,#306,#307,#308,#309,#310,#311));
#313=DERIVED_UNIT_ELEMENT(#315,1.);
#314=DERIVED_UNIT_ELEMENT(#819,-3.);
#315=(
MASS_UNIT()
NAMED_UNIT(*)
SI_UNIT(.KILO.,.GRAM.)
);
#316=DERIVED_UNIT((#313,#314));
#317=MEASURE_REPRESENTATION_ITEM('density measure',
POSITIVE_RATIO_MEASURE(7850.),#316);
#318=PROPERTY_DEFINITION_REPRESENTATION(#323,#320);
#319=PROPERTY_DEFINITION_REPRESENTATION(#324,#321);
#320=REPRESENTATION('material name',(#322),#816);
#321=REPRESENTATION('density',(#317),#816);
#322=DESCRIPTIVE_REPRESENTATION_ITEM('Steel','Steel');
#323=PROPERTY_DEFINITION('material property','material name',#826);
#324=PROPERTY_DEFINITION('material property','density of part',#826);
#325=AXIS2_PLACEMENT_3D('',#490,#378,#379);
#326=AXIS2_PLACEMENT_3D('',#491,#380,#381);
#327=AXIS2_PLACEMENT_3D('',#493,#382,#383);
#328=AXIS2_PLACEMENT_3D('',#495,#384,#385);
#329=AXIS2_PLACEMENT_3D('',#496,#386,#387);
#330=AXIS2_PLACEMENT_3D('',#497,#388,#389);
#331=AXIS2_PLACEMENT_3D('',#499,#390,#391);
#332=AXIS2_PLACEMENT_3D('',#500,#392,#393);
#333=AXIS2_PLACEMENT_3D('',#503,#394,#395);
#334=AXIS2_PLACEMENT_3D('',#505,#396,#397);
#335=AXIS2_PLACEMENT_3D('',#506,#398,#399);
#336=AXIS2_PLACEMENT_3D('',#508,#401,#402);
#337=AXIS2_PLACEMENT_3D('',#510,#403,#404);
#338=AXIS2_PLACEMENT_3D('',#512,#405,#406);
#339=AXIS2_PLACEMENT_3D('',#513,#407,#408);
#340=AXIS2_PLACEMENT_3D('',#514,#409,#410);
#341=AXIS2_PLACEMENT_3D('',#517,#412,#413);
#342=AXIS2_PLACEMENT_3D('',#518,#414,#415);
#343=AXIS2_PLACEMENT_3D('',#520,#416,#417);
#344=AXIS2_PLACEMENT_3D('',#522,#418,#419);
#345=AXIS2_PLACEMENT_3D('',#524,#420,#421);
#346=AXIS2_PLACEMENT_3D('',#525,#422,#423);
#347=AXIS2_PLACEMENT_3D('',#526,#424,#425);
#348=AXIS2_PLACEMENT_3D('',#528,#426,#427);
#349=AXIS2_PLACEMENT_3D('',#529,#428,#429);
#350=AXIS2_PLACEMENT_3D('',#533,#431,#432);
#351=AXIS2_PLACEMENT_3D('',#534,#433,#434);
#352=AXIS2_PLACEMENT_3D('',#535,#435,#436);
#353=AXIS2_PLACEMENT_3D('',#537,#437,#438);
#354=AXIS2_PLACEMENT_3D('',#538,#439,#440);
#355=AXIS2_PLACEMENT_3D('',#539,#441,#442);
#356=AXIS2_PLACEMENT_3D('',#542,#444,#445);
#357=AXIS2_PLACEMENT_3D('',#579,#446,#447);
#358=AXIS2_PLACEMENT_3D('',#658,#448,#449);
#359=AXIS2_PLACEMENT_3D('',#659,#450,#451);
#360=AXIS2_PLACEMENT_3D('',#660,#452,#453);
#361=AXIS2_PLACEMENT_3D('',#661,#454,#455);
#362=AXIS2_PLACEMENT_3D('',#662,#456,#457);
#363=AXIS2_PLACEMENT_3D('',#664,#458,#459);
#364=AXIS2_PLACEMENT_3D('',#666,#460,#461);
#365=AXIS2_PLACEMENT_3D('',#667,#462,#463);
#366=AXIS2_PLACEMENT_3D('',#668,#464,#465);
#367=AXIS2_PLACEMENT_3D('',#721,#467,#468);
#368=AXIS2_PLACEMENT_3D('',#722,#469,#470);
#369=AXIS2_PLACEMENT_3D('',#723,#471,#472);
#370=AXIS2_PLACEMENT_3D('',#726,#473,#474);
#371=AXIS2_PLACEMENT_3D('',#727,#475,#476);
#372=AXIS2_PLACEMENT_3D('',#729,#478,#479);
#373=AXIS2_PLACEMENT_3D('',#780,#480,#481);
#374=AXIS2_PLACEMENT_3D('',#783,#482,#483);
#375=AXIS2_PLACEMENT_3D('',#784,#484,#485);
#376=AXIS2_PLACEMENT_3D('',#785,#486,#487);
#377=AXIS2_PLACEMENT_3D('',#813,#488,#489);
#378=DIRECTION('axis',(0.,0.,1.));
#379=DIRECTION('refdir',(1.,0.,0.));
#380=DIRECTION('center_axis',(0.,0.,-1.));
#381=DIRECTION('ref_axis',(-1.,0.,0.));
#382=DIRECTION('center_axis',(0.,0.,1.));
#383=DIRECTION('ref_axis',(-1.,0.,0.));
#384=DIRECTION('center_axis',(-1.22464679914735E-16,-1.,0.));
#385=DIRECTION('ref_axis',(1.,-1.22464679914735E-16,0.));
#386=DIRECTION('center_axis',(0.,0.,-1.));
#387=DIRECTION('ref_axis',(-1.,0.,0.));
#388=DIRECTION('center_axis',(0.,0.,-1.));
#389=DIRECTION('ref_axis',(-1.,0.,0.));
#390=DIRECTION('center_axis',(0.,0.,1.));
#391=DIRECTION('ref_axis',(1.,0.,0.));
#392=DIRECTION('center_axis',(0.,0.,-1.));
#393=DIRECTION('ref_axis',(-1.,0.,0.));
#394=DIRECTION('center_axis',(0.756761304225333,0.,-0.653691309738146));
#395=DIRECTION('ref_axis',(0.653691309738146,0.,0.756761304225333));
#396=DIRECTION('center_axis',(0.0106202615935784,0.,-0.999943603431556));
#397=DIRECTION('ref_axis',(-0.999943603431556,0.,-0.0106202615935784));
#398=DIRECTION('center_axis',(0.756761304225333,0.,-0.653691309738146));
#399=DIRECTION('ref_axis',(0.653691309738146,0.,0.756761304225333));
#400=DIRECTION('',(0.,0.,1.));
#401=DIRECTION('center_axis',(0.,0.,-1.));
#402=DIRECTION('ref_axis',(-1.,0.,0.));
#403=DIRECTION('center_axis',(-1.22464679914735E-16,-1.,0.));
#404=DIRECTION('ref_axis',(1.,-1.22464679914735E-16,0.));
#405=DIRECTION('center_axis',(0.,0.,-1.));
#406=DIRECTION('ref_axis',(1.,0.,0.));
#407=DIRECTION('center_axis',(0.,0.,-1.));
#408=DIRECTION('ref_axis',(1.,0.,0.));
#409=DIRECTION('center_axis',(0.,0.,-1.));
#410=DIRECTION('ref_axis',(1.,0.,0.));
#411=DIRECTION('',(0.,0.,-1.));
#412=DIRECTION('center_axis',(0.,0.,1.));
#413=DIRECTION('ref_axis',(1.,0.,0.));
#414=DIRECTION('center_axis',(-0.707106781186548,0.,0.707106781186547));
#415=DIRECTION('ref_axis',(0.707106781186548,0.,0.707106781186548));
#416=DIRECTION('center_axis',(0.707106781186548,0.,-0.707106781186547));
#417=DIRECTION('ref_axis',(-3.46944695195361E-17,-1.,-3.46944695195362E-17));
#418=DIRECTION('center_axis',(8.65956056235493E-17,-1.,8.65956056235494E-17));
#419=DIRECTION('ref_axis',(-0.707106781186547,-1.22464679914735E-16,-0.707106781186548));
#420=DIRECTION('center_axis',(-0.707106781186548,0.,0.707106781186547));
#421=DIRECTION('ref_axis',(-2.9738116731031E-17,-1.,-3.96508223080413E-17));
#422=DIRECTION('center_axis',(-0.707106781186548,0.,0.707106781186547));
#423=DIRECTION('ref_axis',(-2.9738116731031E-17,-1.,-3.96508223080413E-17));
#424=DIRECTION('center_axis',(0.707106781186548,0.,-0.707106781186547));
#425=DIRECTION('ref_axis',(-0.707106781186547,0.,-0.707106781186548));
#426=DIRECTION('center_axis',(-0.707106781186548,0.,0.707106781186547));
#427=DIRECTION('ref_axis',(-0.707106781186547,0.,-0.707106781186548));
#428=DIRECTION('center_axis',(-0.707106781186548,0.,0.707106781186547));
#429=DIRECTION('ref_axis',(0.,-1.,0.));
#430=DIRECTION('',(-0.707106781186548,0.,0.707106781186547));
#431=DIRECTION('center_axis',(0.477438842419768,1.51446741629945E-16,-0.878664982657709));
#432=DIRECTION('ref_axis',(-0.878664982657709,0.,-0.477438842419769));
#433=DIRECTION('center_axis',(0.291737518954902,9.25410601973573E-17,-0.956498416116847));
#434=DIRECTION('ref_axis',(0.956498416116847,0.,0.291737518954902));
#435=DIRECTION('center_axis',(0.707106781186548,0.,-0.707106781186547));
#436=DIRECTION('ref_axis',(-0.707106781186547,0.,-0.707106781186548));
#437=DIRECTION('center_axis',(-8.65956056235493E-17,-1.,-8.65956056235495E-17));
#438=DIRECTION('ref_axis',(0.707106781186547,-1.22464679914735E-16,0.707106781186548));
#439=DIRECTION('center_axis',(0.707106781186548,0.,-0.707106781186547));
#440=DIRECTION('ref_axis',(-0.707106781186547,0.,-0.707106781186548));
#441=DIRECTION('center_axis',(-0.707106781186548,0.,0.707106781186547));
#442=DIRECTION('ref_axis',(-0.707106781186547,0.,-0.707106781186548));
#443=DIRECTION('',(-0.707106781186548,0.,0.707106781186547));
#444=DIRECTION('center_axis',(-0.707106781186548,0.,0.707106781186547));
#445=DIRECTION('ref_axis',(-0.707106781186547,0.,-0.707106781186548));
#446=DIRECTION('center_axis',(-0.283709724551558,0.,0.958910210705298));
#447=DIRECTION('ref_axis',(-0.958910210705298,0.,-0.283709724551558));
#448=DIRECTION('center_axis',(-0.470056938250866,0.,0.882636094209965));
#449=DIRECTION('ref_axis',(0.882636094209964,0.,0.470056938250866));
#450=DIRECTION('center_axis',(-0.470056938250866,0.,0.882636094209965));
#451=DIRECTION('ref_axis',(0.882636094209964,0.,0.470056938250866));
#452=DIRECTION('center_axis',(0.,0.,1.));
#453=DIRECTION('ref_axis',(-1.,1.83697019872103E-16,0.));
#454=DIRECTION('center_axis',(0.,0.,-1.));
#455=DIRECTION('ref_axis',(-1.,6.16275667163399E-17,0.));
#456=DIRECTION('center_axis',(0.,0.,1.));
#457=DIRECTION('ref_axis',(-1.,6.16275667163399E-17,0.));
#458=DIRECTION('center_axis',(1.84092246631075E-16,1.,0.));
#459=DIRECTION('ref_axis',(1.,-1.84092246631075E-16,0.));
#460=DIRECTION('center_axis',(0.,0.,-1.));
#461=DIRECTION('ref_axis',(1.,0.,0.));
#462=DIRECTION('center_axis',(0.,0.,-1.));
#463=DIRECTION('ref_axis',(1.,0.,0.));
#464=DIRECTION('center_axis',(0.,0.,1.));
#465=DIRECTION('ref_axis',(1.,0.,0.));
#466=DIRECTION('',(0.0457852681334624,5.6070782067748E-18,-0.998951304730089));
#467=DIRECTION('center_axis',(0.0728814920387485,0.,0.997340607875868));
#468=DIRECTION('ref_axis',(0.997340607875868,0.,-0.0728814920387485));
#469=DIRECTION('center_axis',(0.0728814920387485,0.,0.997340607875868));
#470=DIRECTION('ref_axis',(0.997340607875868,0.,-0.0728814920387485));
#471=DIRECTION('center_axis',(0.707106781186548,0.,-0.707106781186547));
#472=DIRECTION('ref_axis',(-0.707106781186547,0.,-0.707106781186548));
#473=DIRECTION('center_axis',(0.707106781186548,0.,-0.707106781186547));
#474=DIRECTION('ref_axis',(0.707106781186547,0.,0.707106781186548));
#475=DIRECTION('center_axis',(0.707106781186548,0.,-0.707106781186547));
#476=DIRECTION('ref_axis',(0.707106781186547,0.,0.707106781186548));
#477=DIRECTION('',(-0.707106781186548,0.,0.707106781186547));
#478=DIRECTION('center_axis',(-0.69955724379977,0.,0.714576561781359));
#479=DIRECTION('ref_axis',(-0.714576561781359,0.,-0.69955724379977));
#480=DIRECTION('center_axis',(0.707106781186548,0.,-0.707106781186547));
#481=DIRECTION('ref_axis',(-0.707106781186547,0.,-0.707106781186548));
#482=DIRECTION('center_axis',(0.707106781186548,0.,-0.707106781186547));
#483=DIRECTION('ref_axis',(-0.707106781186547,0.,-0.707106781186548));
#484=DIRECTION('center_axis',(0.707106781186548,0.,-0.707106781186547));
#485=DIRECTION('ref_axis',(-0.707106781186547,0.,-0.707106781186548));
#486=DIRECTION('center_axis',(-8.65956056235492E-17,-1.,-8.65956056235494E-17));
#487=DIRECTION('ref_axis',(0.707106781186547,-1.22464679914735E-16,0.707106781186548));
#488=DIRECTION('center_axis',(-8.65956056235493E-17,-1.,-8.65956056235494E-17));
#489=DIRECTION('ref_axis',(-0.707106781186547,1.22464679914735E-16,-0.707106781186548));
#490=CARTESIAN_POINT('',(0.,0.,0.));
#491=CARTESIAN_POINT('Origin',(0.,0.,-0.5));
#492=CARTESIAN_POINT('',(9.75,1.19403062916867E-15,-0.5));
#493=CARTESIAN_POINT('Origin',(0.,0.,-0.5));
#494=CARTESIAN_POINT('',(9.25,-1.1327982892113E-15,0.));
#495=CARTESIAN_POINT('Origin',(9.25,-1.1327982892113E-15,-0.5));
#496=CARTESIAN_POINT('Origin',(0.,0.,0.));
#497=CARTESIAN_POINT('Origin',(0.,0.,0.));
#498=CARTESIAN_POINT('',(8.75,-1.07156594925393E-15,0.));
#499=CARTESIAN_POINT('Origin',(0.,0.,0.));
#500=CARTESIAN_POINT('Origin',(0.,0.,0.));
#501=CARTESIAN_POINT('',(0.,9.75,-80.));
#502=CARTESIAN_POINT('',(9.75,-1.19403062916867E-15,-68.7126804253331));
#503=CARTESIAN_POINT('Origin',(0.,0.,-80.));
#504=CARTESIAN_POINT('',(0.,-9.75,-80.));
#505=CARTESIAN_POINT('Origin',(0.,0.,-80.));
#506=CARTESIAN_POINT('Origin',(0.,0.,-80.));
#507=CARTESIAN_POINT('',(9.75,-1.19403062916867E-15,0.));
#508=CARTESIAN_POINT('Origin',(0.,0.,-0.5));
#509=CARTESIAN_POINT('',(8.25,-1.01033360929657E-15,-0.5));
#510=CARTESIAN_POINT('Origin',(8.75,-1.07156594925393E-15,-0.5));
#511=CARTESIAN_POINT('',(-8.25,1.01033360929657E-15,-0.5));
#512=CARTESIAN_POINT('Origin',(0.,0.,-0.5));
#513=CARTESIAN_POINT('Origin',(0.,0.,-0.5));
#514=CARTESIAN_POINT('Origin',(0.,0.,0.));
#515=CARTESIAN_POINT('',(-8.25,-1.01033360929657E-15,-52.));
#516=CARTESIAN_POINT('',(-8.25,1.01033360929657E-15,0.));
#517=CARTESIAN_POINT('Origin',(0.,0.,-52.));
#518=CARTESIAN_POINT('Origin',(39.6464466094068,0.,-119.646446609407));
#519=CARTESIAN_POINT('',(34.696699141101,-9.18485099360515E-16,-125.303300858899));
#520=CARTESIAN_POINT('Origin',(40.0000000000001,0.,-120.));
#521=CARTESIAN_POINT('',(34.696699141101,-8.57252759403147E-16,-124.596194077713));
#522=CARTESIAN_POINT('Origin',(34.3431457505077,-9.18485099360515E-16,-124.949747468306));
#523=CARTESIAN_POINT('',(39.6464466094068,7.,-119.646446609407));
#524=CARTESIAN_POINT('Origin',(39.6464466094068,0.,-119.646446609407));
#525=CARTESIAN_POINT('Origin',(39.6464466094068,0.,-119.646446609407));
#526=CARTESIAN_POINT('Origin',(40.0000000000001,0.,-120.));
#527=CARTESIAN_POINT('',(45.8336309447891,1.01033360929657E-15,-114.166369055211));
#528=CARTESIAN_POINT('Origin',(40.0000000000001,0.,-120.));
#529=CARTESIAN_POINT('Origin',(40.0000000000001,0.,-120.));
#530=CARTESIAN_POINT('',(0.,7.,-80.));
#531=CARTESIAN_POINT('',(40.0000000000001,7.,-120.));
#532=CARTESIAN_POINT('',(8.88178419700118E-15,-7.,-80.));
#533=CARTESIAN_POINT('Origin',(2.22044604925031E-15,0.,-80.));
#534=CARTESIAN_POINT('Origin',(-2.22044604925031E-15,0.,-80.));
#535=CARTESIAN_POINT('Origin',(39.6464466094068,0.,-119.646446609407));
#536=CARTESIAN_POINT('',(45.8336309447891,-1.07156594925393E-15,-113.459262274024));
#537=CARTESIAN_POINT('Origin',(45.4800775541958,-1.01033360929657E-15,-113.812815664618));
#538=CARTESIAN_POINT('Origin',(39.6464466094068,0.,-119.646446609407));
#539=CARTESIAN_POINT('Origin',(40.,0.,-120.));
#540=CARTESIAN_POINT('',(18.9889572510699,1.07156594925393E-15,-86.6145885803054));
#541=CARTESIAN_POINT('',(46.1871843353823,1.07156594925393E-15,-113.812815664618));
#542=CARTESIAN_POINT('Origin',(12.8017729156877,0.,-92.8017729156876));
#543=CARTESIAN_POINT('Ctrl Pts',(-4.28626379701574E-16,-7.,-80.));
#544=CARTESIAN_POINT('Ctrl Pts',(-1.0471975511966,-7.,-80.3098310201354));
#545=CARTESIAN_POINT('Ctrl Pts',(-4.21183403506799,-6.30276761772084,-81.2461419855641));
#546=CARTESIAN_POINT('Ctrl Pts',(-7.07449041291422,-2.6971891362484,-82.0931070542196));
#547=CARTESIAN_POINT('Ctrl Pts',(-7.05290013251033,1.61414390793256,-82.086719206392));
#548=CARTESIAN_POINT('Ctrl Pts',(-5.66336853636772,4.51210565788401,-81.6756028974862));
#549=CARTESIAN_POINT('Ctrl Pts',(-3.13971690583753,6.52273745189255,-80.9289380888643));
#550=CARTESIAN_POINT('Ctrl Pts',(-1.0471975511966,7.,-80.3098310201354));
#551=CARTESIAN_POINT('Ctrl Pts',(-8.57252759403147E-16,7.,-80.));
#552=CARTESIAN_POINT('Ctrl Pts',(-4.07702753031715E-16,-7.,-80.));
#553=CARTESIAN_POINT('Ctrl Pts',(-1.01798640248198,-7.,-80.3803529715347));
#554=CARTESIAN_POINT('Ctrl Pts',(-4.083527750932,-6.36395661977934,-81.5265715734991));
#555=CARTESIAN_POINT('Ctrl Pts',(-7.07105002203031,-2.80806609598772,-82.6213026520423));
#556=CARTESIAN_POINT('Ctrl Pts',(-7.05822786286685,1.676682588884,-82.6158091116297));
#557=CARTESIAN_POINT('Ctrl Pts',(-5.58723759542577,4.60802322130219,-82.0784795621571));
#558=CARTESIAN_POINT('Ctrl Pts',(-3.05312428362956,6.55322804040295,-81.1405962356558));
#559=CARTESIAN_POINT('Ctrl Pts',(-1.01798640248198,7.,-80.3803529715347));
#560=CARTESIAN_POINT('Ctrl Pts',(-8.1540550606343E-16,7.,-80.));
#561=CARTESIAN_POINT('Ctrl Pts',(-3.86779126361856E-16,-7.,-80.));
#562=CARTESIAN_POINT('Ctrl Pts',(-0.988775253767351,-7.,-80.450874922934));
#563=CARTESIAN_POINT('Ctrl Pts',(-3.9669392754353,-6.36395661977935,-81.8080410522597));
#564=CARTESIAN_POINT('Ctrl Pts',(-6.8535283014883,-2.80806609598772,-83.1464465398855));
#565=CARTESIAN_POINT('Ctrl Pts',(-6.84057714611591,1.676682588884,-83.1412644238701));
#566=CARTESIAN_POINT('Ctrl Pts',(-5.42048058478492,4.60802322130219,-82.481066598867));
#567=CARTESIAN_POINT('Ctrl Pts',(-2.96540821758781,6.55322804040295,-81.3523615519318));
#568=CARTESIAN_POINT('Ctrl Pts',(-0.988775253767351,7.,-80.450874922934));
#569=CARTESIAN_POINT('Ctrl Pts',(-7.73558252723712E-16,7.,-80.));
#570=CARTESIAN_POINT('Ctrl Pts',(-3.65855499691997E-16,-7.,-80.));
#571=CARTESIAN_POINT('Ctrl Pts',(-0.95956410505273,-7.,-80.5213968743334));
#572=CARTESIAN_POINT('Ctrl Pts',(-3.85937185574252,-6.30276761772084,-82.0970609591152));
#573=CARTESIAN_POINT('Ctrl Pts',(-6.48247033619897,-2.6971891362484,-83.5223699526228));
#574=CARTESIAN_POINT('Ctrl Pts',(-6.46268681200153,1.61414390793257,-83.5116202094576));
#575=CARTESIAN_POINT('Ctrl Pts',(-5.18943646781241,4.51210565788402,-82.8197761250359));
#576=CARTESIAN_POINT('Ctrl Pts',(-2.87697353706216,6.52273745189255,-81.5632566931854));
#577=CARTESIAN_POINT('Ctrl Pts',(-0.95956410505273,7.,-80.5213968743334));
#578=CARTESIAN_POINT('Ctrl Pts',(-7.31710999383994E-16,7.,-80.));
#579=CARTESIAN_POINT('Origin',(0.,0.,-80.));
#580=CARTESIAN_POINT('Ctrl Pts',(0.,7.,-80.));
#581=CARTESIAN_POINT('Ctrl Pts',(1.13483099734047,7.,-79.6538700179543));
#582=CARTESIAN_POINT('Ctrl Pts',(2.83260709278002,6.63862951283311,-79.136038542775));
#583=CARTESIAN_POINT('Ctrl Pts',(5.74153290245631,4.96132779155186,-78.2487994378906));
#584=CARTESIAN_POINT('Ctrl Pts',(7.65525919040247,2.15201557623007,-77.6651019117925));
#585=CARTESIAN_POINT('Ctrl Pts',(7.64594170599752,-1.61199906407584,-77.6679437981327));
#586=CARTESIAN_POINT('Ctrl Pts',(6.13561500802744,-4.51335842830943,-78.1286021288239));
#587=CARTESIAN_POINT('Ctrl Pts',(3.40305099337337,-6.52230109322723,-78.9620498717454));
#588=CARTESIAN_POINT('Ctrl Pts',(1.13483099734047,-7.,-79.6538700179543));
#589=CARTESIAN_POINT('Ctrl Pts',(0.,-7.,-80.));
#590=CARTESIAN_POINT('Ctrl Pts',(-4.18472533397171E-17,7.,-80.));
#591=CARTESIAN_POINT('Ctrl Pts',(1.10561984862584,7.,-79.583348066555));
#592=CARTESIAN_POINT('Ctrl Pts',(2.75766003049704,6.61843966405021,-78.9612014301246));
#593=CARTESIAN_POINT('Ctrl Pts',(5.54062244571957,4.87329961847105,-77.9230833597991));
#594=CARTESIAN_POINT('Ctrl Pts',(7.27996642215785,2.06784942429202,-77.2923902178027));
#595=CARTESIAN_POINT('Ctrl Pts',(7.26922140314294,-1.55115200775308,-77.2967270275522));
#596=CARTESIAN_POINT('Ctrl Pts',(5.90387926182069,-4.41645277568395,-77.7904064889189));
#597=CARTESIAN_POINT('Ctrl Pts',(3.31483228413741,-6.49218397248897,-78.7509885815683));
#598=CARTESIAN_POINT('Ctrl Pts',(1.10561984862584,-7.,-79.583348066555));
#599=CARTESIAN_POINT('Ctrl Pts',(0.,-7.,-80.));
#600=CARTESIAN_POINT('Ctrl Pts',(-8.36945066794343E-17,7.,-80.));
#601=CARTESIAN_POINT('Ctrl Pts',(1.07640869991122,7.,-79.5128261151557));
#602=CARTESIAN_POINT('Ctrl Pts',(2.68450162081732,6.61843966405021,-78.7845814052742));
#603=CARTESIAN_POINT('Ctrl Pts',(5.38641354360791,4.87329961847104,-77.5507901368825));
#604=CARTESIAN_POINT('Ctrl Pts',(7.06228286171692,2.06784942429202,-76.7668556138805));
#605=CARTESIAN_POINT('Ctrl Pts',(7.05161839832492,-1.55115200775308,-76.7713869021074));
#606=CARTESIAN_POINT('Ctrl Pts',(5.73709161669126,-4.41645277568395,-77.3877454940112));
#607=CARTESIAN_POINT('Ctrl Pts',(3.2271248303622,-6.49218397248898,-78.5392440571429));
#608=CARTESIAN_POINT('Ctrl Pts',(1.07640869991122,-7.,-79.5128261151557));
#609=CARTESIAN_POINT('Ctrl Pts',(0.,-7.,-80.));
#610=CARTESIAN_POINT('Ctrl Pts',(-1.25541760019151E-16,7.,-80.));
#611=CARTESIAN_POINT('Ctrl Pts',(1.0471975511966,7.,-79.4423041637563));
#612=CARTESIAN_POINT('Ctrl Pts',(2.61386868882946,6.63862951283311,-78.6079573213457));
#613=CARTESIAN_POINT('Ctrl Pts',(5.29816264241776,4.96132779155185,-77.1784089429527));
#614=CARTESIAN_POINT('Ctrl Pts',(7.06410795682525,2.15201557623008,-76.2379365862768));
#615=CARTESIAN_POINT('Ctrl Pts',(7.05550998331639,-1.61199906407584,-76.2425155255806));
#616=CARTESIAN_POINT('Ctrl Pts',(5.66181310393284,-4.51335842830943,-76.9847431460805));
#617=CARTESIAN_POINT('Ctrl Pts',(3.14026200836016,-6.52230109322723,-78.3276211400843));
#618=CARTESIAN_POINT('Ctrl Pts',(1.0471975511966,-7.,-79.4423041637563));
#619=CARTESIAN_POINT('Ctrl Pts',(0.,-7.,-80.));
#620=CARTESIAN_POINT('',(6.88113523854018,-1.28488015537948,-76.3353805910084));
#621=CARTESIAN_POINT('',(7.00125232565557,0.000879477047475487,-76.3146313068652));
#622=CARTESIAN_POINT('Ctrl Pts',(6.88113523854018,-1.28488015537948,-76.3353805910084));
#623=CARTESIAN_POINT('Ctrl Pts',(6.88575963378853,-1.26012058495193,-76.3345882766706));
#624=CARTESIAN_POINT('Ctrl Pts',(6.89025269222261,-1.23533568866315,-76.3338185997794));
#625=CARTESIAN_POINT('Ctrl Pts',(6.89461410899976,-1.21052609906858,-76.3330715313406));
#626=CARTESIAN_POINT('Ctrl Pts',(6.91929902670553,-1.07010781098761,-76.3288432440946));
#627=CARTESIAN_POINT('Ctrl Pts',(6.93974265300636,-0.929046730111606,-76.3253493272249));
#628=CARTESIAN_POINT('Ctrl Pts',(6.95590392131708,-0.787458095843849,-76.3225715088322));
#629=CARTESIAN_POINT('Ctrl Pts',(6.96751554754313,-0.685728809047524,-76.3205756884374));
#630=CARTESIAN_POINT('Ctrl Pts',(6.97691604987012,-0.583726926860452,-76.3189506164824));
#631=CARTESIAN_POINT('Ctrl Pts',(6.98408495335768,-0.481494436418146,-76.3177051409069));
#632=CARTESIAN_POINT('Ctrl Pts',(6.99431738130968,-0.335574409091907,-76.3159274298364));
#633=CARTESIAN_POINT('Ctrl Pts',(6.9999853546521,-0.189446610324933,-76.3149196419202));
#634=CARTESIAN_POINT('Ctrl Pts',(7.00106565039059,-0.0432374424874011,-76.3146801116892));
#635=CARTESIAN_POINT('Ctrl Pts',(7.00117430019595,-0.0285325824556295,-76.3146560211443));
#636=CARTESIAN_POINT('Ctrl Pts',(7.00123653527064,-0.0138268995087856,-76.3146397439841));
#637=CARTESIAN_POINT('Ctrl Pts',(7.00125232565556,0.000879477047475307,
-76.3146313068652));
#638=CARTESIAN_POINT('',(6.88296872139636,1.28599129984782,-76.3344041508386));
#639=CARTESIAN_POINT('Ctrl Pts',(7.00125232565556,0.000879477047475307,
-76.3146313068652));
#640=CARTESIAN_POINT('Ctrl Pts',(7.00128694287606,0.0331151010351774,-76.3146130555044));
#641=CARTESIAN_POINT('Ctrl Pts',(7.00109841595887,0.0653540790118679,-76.3146326587279));
#642=CARTESIAN_POINT('Ctrl Pts',(7.00068639738388,0.097594989647476,-76.3146898734633));
#643=CARTESIAN_POINT('Ctrl Pts',(6.99882099332409,0.24356492702811,-76.3149489117841));
#644=CARTESIAN_POINT('Ctrl Pts',(6.99237856093578,0.389335180913635,-76.3159834770847));
#645=CARTESIAN_POINT('Ctrl Pts',(6.98136549097933,0.534779575430379,-76.3177946605518));
#646=CARTESIAN_POINT('Ctrl Pts',(6.97703721357047,0.591941083486018,-76.3185064788291));
#647=CARTESIAN_POINT('Ctrl Pts',(6.97200284402035,0.649052247855552,-76.3193388021949));
#648=CARTESIAN_POINT('Ctrl Pts',(6.96626228586024,0.706105240155047,-76.3202938532974));
#649=CARTESIAN_POINT('Ctrl Pts',(6.95199649549485,0.847886928479325,-76.322667239027));
#650=CARTESIAN_POINT('Ctrl Pts',(6.9333916119746,0.989099377750338,-76.3257899498803));
#651=CARTESIAN_POINT('Ctrl Pts',(6.91047520363334,1.12962430750089,-76.3296723435688));
#652=CARTESIAN_POINT('Ctrl Pts',(6.90600381866752,1.15704313548007,-76.330429865276));
#653=CARTESIAN_POINT('Ctrl Pts',(6.90136824728178,1.18443576839506,-76.331216459763));
#654=CARTESIAN_POINT('Ctrl Pts',(6.89656862584311,1.21180128813399,-76.332032426414));
#655=CARTESIAN_POINT('Ctrl Pts',(6.89222105848888,1.23658937647988,-76.3327715409504));
#656=CARTESIAN_POINT('Ctrl Pts',(6.88773946696408,1.26135191466894,-76.3335345097374));
#657=CARTESIAN_POINT('Ctrl Pts',(6.88312404192187,1.28608823009281,-76.3343214332938));
#658=CARTESIAN_POINT('Origin',(0.,0.,-80.));
#659=CARTESIAN_POINT('Origin',(0.,0.,-80.));
#660=CARTESIAN_POINT('Origin',(0.,0.,-80.));
#661=CARTESIAN_POINT('Origin',(0.,0.,-76.335410196625));
#662=CARTESIAN_POINT('Origin',(0.,0.,-76.335410196625));
#663=CARTESIAN_POINT('',(7.15,-1.31625956341219E-15,-76.));
#664=CARTESIAN_POINT('Origin',(7.45,-1.37148723740151E-15,-76.335410196625));
#665=CARTESIAN_POINT('',(-7.15,8.75622461390358E-16,-76.));
#666=CARTESIAN_POINT('Origin',(0.,0.,-76.));
#667=CARTESIAN_POINT('Origin',(0.,0.,-76.));
#668=CARTESIAN_POINT('Origin',(0.,0.,-64.));
#669=CARTESIAN_POINT('',(-7.7,-9.42978035343462E-16,-64.));
#670=CARTESIAN_POINT('Ctrl Pts',(1.56791958343472E-15,-9.75,-80.));
#671=CARTESIAN_POINT('Ctrl Pts',(1.45859658916669,-9.75,-78.3114209402622));
#672=CARTESIAN_POINT('Ctrl Pts',(4.37565998223522,-9.08529024169573,-74.9344130697877));
#673=CARTESIAN_POINT('Ctrl Pts',(7.88267022801992,-6.28626691966568,-70.8744391830387));
#674=CARTESIAN_POINT('Ctrl Pts',(9.83182958969606,-2.24392942666351,-68.6179484530702));
#675=CARTESIAN_POINT('Ctrl Pts',(9.82950514524908,2.24356994320566,-68.620639401512));
#676=CARTESIAN_POINT('Ctrl Pts',(7.884673240224,6.28753831585225,-70.8721203482839));
#677=CARTESIAN_POINT('Ctrl Pts',(4.37440902800873,9.08431541280163,-74.9358612667239));
#678=CARTESIAN_POINT('Ctrl Pts',(1.45859658916669,9.75,-78.3114209402622));
#679=CARTESIAN_POINT('Ctrl Pts',(1.56791958343472E-15,9.75,-80.));
#680=CARTESIAN_POINT('Ctrl Pts',(1.56882725161588E-15,-9.75,-80.));
#681=CARTESIAN_POINT('Ctrl Pts',(1.60465233273981,-9.75,-78.6640306972589));
#682=CARTESIAN_POINT('Ctrl Pts',(4.81196465052889,-8.93471261687347,-75.9926443394453));
#683=CARTESIAN_POINT('Ctrl Pts',(8.25234174151775,-5.80331353486115,-72.8906034625201));
#684=CARTESIAN_POINT('Ctrl Pts',(9.81542738811954,-1.94324086654868,-71.2621884579316));
#685=CARTESIAN_POINT('Ctrl Pts',(9.81650615747869,1.94653117760919,-71.2633633737924));
#686=CARTESIAN_POINT('Ctrl Pts',(8.25745029975371,5.80113097726982,-72.8879486270965));
#687=CARTESIAN_POINT('Ctrl Pts',(4.80824191984953,8.93441781019807,-75.994384077343));
#688=CARTESIAN_POINT('Ctrl Pts',(1.60465233273981,9.75,-78.6640306972589));
#689=CARTESIAN_POINT('Ctrl Pts',(1.56882725161588E-15,9.75,-80.));
#690=CARTESIAN_POINT('Ctrl Pts',(1.57041567093292E-15,-9.75,-80.));
#691=CARTESIAN_POINT('Ctrl Pts',(1.86024988399275,-9.75,-79.2810977720031));
#692=CARTESIAN_POINT('Ctrl Pts',(5.57678714176606,-8.82239890497139,-77.8450174468322));
#693=CARTESIAN_POINT('Ctrl Pts',(9.35781142712193,-5.43270495692606,-76.4187762224662));
#694=CARTESIAN_POINT('Ctrl Pts',(10.8629011400264,-1.70777943295092,-75.8854018442662));
#695=CARTESIAN_POINT('Ctrl Pts',(10.8650503629208,1.71363008410202,-75.8842957075568));
#696=CARTESIAN_POINT('Ctrl Pts',(9.36537763384683,5.4284090793817,-76.4156168016863));
#697=CARTESIAN_POINT('Ctrl Pts',(5.57174920958477,8.82237424161368,-77.8471526390786));
#698=CARTESIAN_POINT('Ctrl Pts',(1.86024988399275,9.75,-79.2810977720031));
#699=CARTESIAN_POINT('Ctrl Pts',(1.57041567093292E-15,9.75,-80.));
#700=CARTESIAN_POINT('Ctrl Pts',(1.57200409024996E-15,-9.75,-80.));
#701=CARTESIAN_POINT('Ctrl Pts',(2.1158474352457,-9.75,-79.8981648467473));
#702=CARTESIAN_POINT('Ctrl Pts',(6.34572601272605,-8.97210727884032,-79.6954403037707));
#703=CARTESIAN_POINT('Ctrl Pts',(11.1531203937178,-5.92431590545314,-79.6137222836841));
#704=CARTESIAN_POINT('Ctrl Pts',(13.5904570883404,-2.01907318051212,-79.7021086273204));
#705=CARTESIAN_POINT('Ctrl Pts',(13.5891792488215,2.02128524060253,-79.7009997138779));
#706=CARTESIAN_POINT('Ctrl Pts',(11.1579559579708,5.92312524865375,-79.6124969814523));
#707=CARTESIAN_POINT('Ctrl Pts',(6.34246932596001,8.97165268955161,-79.6964048726253));
#708=CARTESIAN_POINT('Ctrl Pts',(2.1158474352457,9.75,-79.8981648467473));
#709=CARTESIAN_POINT('Ctrl Pts',(1.57200409024996E-15,9.75,-80.));
#710=CARTESIAN_POINT('Ctrl Pts',(1.57268484138583E-15,-9.75,-80.));
#711=CARTESIAN_POINT('Ctrl Pts',(2.22538924292554,-9.75,-80.1626221644949));
#712=CARTESIAN_POINT('Ctrl Pts',(6.67596971464821,-9.08529024169573,-80.4878520234379));
#713=CARTESIAN_POINT('Ctrl Pts',(12.0266355078938,-6.28626691966567,-80.8788563637134));
#714=CARTESIAN_POINT('Ctrl Pts',(15.0004792069935,-2.24392942666352,-81.0961724583042));
#715=CARTESIAN_POINT('Ctrl Pts',(14.9969327886716,2.24356994320566,-81.0959133008442));
#716=CARTESIAN_POINT('Ctrl Pts',(12.0296915151857,6.28753831585224,-80.8790796839806));
#717=CARTESIAN_POINT('Ctrl Pts',(6.67406112655764,9.08431541280163,-80.4877125517804));
#718=CARTESIAN_POINT('Ctrl Pts',(2.22538924292554,9.75,-80.1626221644949));
#719=CARTESIAN_POINT('Ctrl Pts',(1.57268484138583E-15,9.75,-80.));
#720=CARTESIAN_POINT('',(14.8756313292354,-1.19403062916867E-15,-81.0870490960977));
#721=CARTESIAN_POINT('Origin',(0.,0.,-80.));
#722=CARTESIAN_POINT('Origin',(0.,0.,-80.));
#723=CARTESIAN_POINT('Origin',(0.,0.,-80.));
#724=CARTESIAN_POINT('',(2.37194789318612,1.19403062916867E-15,-96.1605301263238));
#725=CARTESIAN_POINT('',(16.1605301263238,-1.19403062916867E-15,-82.3719478931861));
#726=CARTESIAN_POINT('Origin',(9.26623900975494,0.,-89.2662390097549));
#727=CARTESIAN_POINT('Origin',(9.26623900975494,0.,-89.2662390097549));
#728=CARTESIAN_POINT('',(6.89429111656883,-1.19403062916867E-15,-73.1057088834312));
#729=CARTESIAN_POINT('Origin',(0.,0.,-80.));
#730=CARTESIAN_POINT('Ctrl Pts',(-5.0060751298518E-16,9.75,-80.));
#731=CARTESIAN_POINT('Ctrl Pts',(-1.04233771998331,9.75,-81.0204293584473));
#732=CARTESIAN_POINT('Ctrl Pts',(-3.12693735164315,9.08526024900962,-83.0612138604112));
#733=CARTESIAN_POINT('Ctrl Pts',(-5.6330703443945,6.286209297063,-85.51467173011));
#734=CARTESIAN_POINT('Ctrl Pts',(-7.02601170753008,2.2439088715001,-86.8783355736884));
#735=CARTESIAN_POINT('Ctrl Pts',(-7.02430856134423,-2.24357038755044,-86.8766682250581));
#736=CARTESIAN_POINT('Ctrl Pts',(-5.63454138447031,-6.28756099608565,-85.5161118511495));
#737=CARTESIAN_POINT('Ctrl Pts',(-3.12602699139917,-9.08427527787292,-83.0603226345619));
#738=CARTESIAN_POINT('Ctrl Pts',(-1.04233771998331,-9.75,-81.0204293584473));
#739=CARTESIAN_POINT('Ctrl Pts',(-5.0060751298518E-16,-9.75,-80.));
#740=CARTESIAN_POINT('Ctrl Pts',(-5.02960612262605E-16,9.75,-80.));
#741=CARTESIAN_POINT('Ctrl Pts',(-1.11171419818054,9.75,-80.8529397238739));
#742=CARTESIAN_POINT('Ctrl Pts',(-3.33590968759438,9.15689170911341,-82.5592626052685));
#743=CARTESIAN_POINT('Ctrl Pts',(-6.18622366963492,6.5155572479532,-84.7133968698121));
#744=CARTESIAN_POINT('Ctrl Pts',(-7.9194644023417,2.3866503380393,-85.9956378224626));
#745=CARTESIAN_POINT('Ctrl Pts',(-7.91610839569131,-2.38447842187264,-85.9933367876181));
#746=CARTESIAN_POINT('Ctrl Pts',(-6.18644720904503,-6.51852910035088,-84.7138479618264));
#747=CARTESIAN_POINT('Ctrl Pts',(-3.33588193060558,-9.15558179497196,-82.5590849555085));
#748=CARTESIAN_POINT('Ctrl Pts',(-1.11171419818054,-9.75,-80.8529397238739));
#749=CARTESIAN_POINT('Ctrl Pts',(-5.02960612262605E-16,-9.75,-80.));
#750=CARTESIAN_POINT('Ctrl Pts',(-5.07666810817456E-16,9.75,-80.));
#751=CARTESIAN_POINT('Ctrl Pts',(-1.25046715457498,9.75,-80.517960454727));
#752=CARTESIAN_POINT('Ctrl Pts',(-3.75339236725318,9.22805871296838,-81.5547060234239));
#753=CARTESIAN_POINT('Ctrl Pts',(-7.1386128711884,6.74952658256927,-82.9569102677774));
#754=CARTESIAN_POINT('Ctrl Pts',(-9.34601309842547,2.53506019511865,-83.8712453794844));
#755=CARTESIAN_POINT('Ctrl Pts',(-9.34097409471866,-2.53103661620382,-83.8691581558082));
#756=CARTESIAN_POINT('Ctrl Pts',(-7.13738893324015,-6.75392632620347,-82.9564032960797));
#757=CARTESIAN_POINT('Ctrl Pts',(-3.75415996696098,-9.22656302257876,-81.5550239736334));
#758=CARTESIAN_POINT('Ctrl Pts',(-1.25046715457498,-9.75,-80.517960454727));
#759=CARTESIAN_POINT('Ctrl Pts',(-5.07666810817456E-16,-9.75,-80.));
#760=CARTESIAN_POINT('Ctrl Pts',(-5.12373009372306E-16,9.75,-80.));
#761=CARTESIAN_POINT('Ctrl Pts',(-1.38922011096944,9.75,-80.1829811855802));
#762=CARTESIAN_POINT('Ctrl Pts',(-4.1685163045464,9.15689170911341,-80.5491724185013));
#763=CARTESIAN_POINT('Ctrl Pts',(-7.70719559580315,6.51555724795322,-81.041445817668));
#764=CARTESIAN_POINT('Ctrl Pts',(-9.83946314406313,2.38665033803929,-81.3603508204594));
#765=CARTESIAN_POINT('Ctrl Pts',(-9.83546301166063,-2.38447842187264,-81.3596048427416));
#766=CARTESIAN_POINT('Ctrl Pts',(-7.70767263225818,-6.5185291003509,-81.0412849136784));
#767=CARTESIAN_POINT('Ctrl Pts',(-4.16837106004142,-9.15558179497197,-80.5492784086963));
#768=CARTESIAN_POINT('Ctrl Pts',(-1.38922011096944,-9.75,-80.1829811855802));
#769=CARTESIAN_POINT('Ctrl Pts',(-5.12373009372306E-16,-9.75,-80.));
#770=CARTESIAN_POINT('Ctrl Pts',(-5.14726108649732E-16,9.75,-80.));
#771=CARTESIAN_POINT('Ctrl Pts',(-1.45859658916667,9.75,-80.0154915510068));
#772=CARTESIAN_POINT('Ctrl Pts',(-4.37568368505131,9.08526024900963,-80.0464735263334));
#773=CARTESIAN_POINT('Ctrl Pts',(-7.88264401580068,6.28620929706304,-80.0837204630437));
#774=CARTESIAN_POINT('Ctrl Pts',(-9.83185825052232,2.2439088715001,-80.1044227956588));
#775=CARTESIAN_POINT('Ctrl Pts',(-9.82947495078184,-2.24357038755044,-80.1043974829646));
#776=CARTESIAN_POINT('Ctrl Pts',(-7.88470251756645,-6.28756099608568,-80.0837423261039));
#777=CARTESIAN_POINT('Ctrl Pts',(-4.37440977130788,-9.08427527787292,-80.0464599962731));
#778=CARTESIAN_POINT('Ctrl Pts',(-1.45859658916667,-9.75,-80.0154915510068));
#779=CARTESIAN_POINT('Ctrl Pts',(-5.14726108649732E-16,-9.75,-80.));
#780=CARTESIAN_POINT('Origin',(12.8017729156877,0.,-92.8017729156876));
#781=CARTESIAN_POINT('',(17.5747436886968,-1.1327982892113E-15,-84.4932682367457));
#782=CARTESIAN_POINT('',(4.49326823674575,1.1327982892113E-15,-97.5747436886969));
#783=CARTESIAN_POINT('Origin',(11.0340059627213,0.,-91.0340059627213));
#784=CARTESIAN_POINT('Origin',(11.0340059627213,0.,-91.0340059627213));
#785=CARTESIAN_POINT('Origin',(23.5851513287825,-1.86758636869971E-15,-82.0183945025928));
#786=CARTESIAN_POINT('Ctrl Pts',(4.49326823674575,0.,-97.5747436886969));
#787=CARTESIAN_POINT('Ctrl Pts',(4.49326823674575,9.24999999999999,-97.5747436886969));
#788=CARTESIAN_POINT('Ctrl Pts',(11.0340059627213,9.24999999999999,-91.0340059627213));
#789=CARTESIAN_POINT('Ctrl Pts',(17.5747436886968,9.24999999999999,-84.4932682367457));
#790=CARTESIAN_POINT('Ctrl Pts',(17.5747436886968,0.,-84.4932682367457));
#791=CARTESIAN_POINT('Ctrl Pts',(17.5747436886968,-9.24999999999999,-84.4932682367457));
#792=CARTESIAN_POINT('Ctrl Pts',(11.0340059627213,-9.24999999999999,-91.0340059627213));
#793=CARTESIAN_POINT('Ctrl Pts',(4.49326823674575,-9.24999999999999,-97.5747436886969));
#794=CARTESIAN_POINT('Ctrl Pts',(4.49326823674575,0.,-97.5747436886969));
#795=CARTESIAN_POINT('Ctrl Pts',(3.29118670872862,0.,-97.0797689418663));
#796=CARTESIAN_POINT('Ctrl Pts',(3.29118670872862,9.74999999999998,-97.0797689418663));
#797=CARTESIAN_POINT('Ctrl Pts',(10.1854778252974,9.74999999999999,-90.1854778252974));
#798=CARTESIAN_POINT('Ctrl Pts',(17.0797689418663,9.74999999999998,-83.2911867087286));
#799=CARTESIAN_POINT('Ctrl Pts',(17.0797689418663,0.,-83.2911867087286));
#800=CARTESIAN_POINT('Ctrl Pts',(17.0797689418663,-9.74999999999998,-83.2911867087286));
#801=CARTESIAN_POINT('Ctrl Pts',(10.1854778252974,-9.74999999999999,-90.1854778252974));
#802=CARTESIAN_POINT('Ctrl Pts',(3.29118670872862,-9.74999999999998,-97.0797689418663));
#803=CARTESIAN_POINT('Ctrl Pts',(3.29118670872862,0.,-97.0797689418663));
#804=CARTESIAN_POINT('Ctrl Pts',(2.37194789318612,0.,-96.1605301263238));
#805=CARTESIAN_POINT('Ctrl Pts',(2.37194789318612,9.74999999999998,-96.1605301263238));
#806=CARTESIAN_POINT('Ctrl Pts',(9.26623900975494,9.74999999999999,-89.2662390097549));
#807=CARTESIAN_POINT('Ctrl Pts',(16.1605301263238,9.74999999999998,-82.3719478931861));
#808=CARTESIAN_POINT('Ctrl Pts',(16.1605301263238,0.,-82.3719478931861));
#809=CARTESIAN_POINT('Ctrl Pts',(16.1605301263238,-9.74999999999998,-82.3719478931861));
#810=CARTESIAN_POINT('Ctrl Pts',(9.26623900975494,-9.74999999999999,-89.2662390097549));
#811=CARTESIAN_POINT('Ctrl Pts',(2.37194789318612,-9.74999999999998,-96.1605301263238));
#812=CARTESIAN_POINT('Ctrl Pts',(2.37194789318612,0.,-96.1605301263238));
#813=CARTESIAN_POINT('Origin',(6.96814197089868,3.98010209722887E-16,-91.5643360486112));
#814=UNCERTAINTY_MEASURE_WITH_UNIT(LENGTH_MEASURE(0.01),#818,
'DISTANCE_ACCURACY_VALUE',
'Maximum model space distance between geometric entities at asserted c
onnectivities');
#815=UNCERTAINTY_MEASURE_WITH_UNIT(LENGTH_MEASURE(0.01),#818,
'DISTANCE_ACCURACY_VALUE',
'Maximum model space distance between geometric entities at asserted c
onnectivities');
#816=(
GEOMETRIC_REPRESENTATION_CONTEXT(3)
GLOBAL_UNCERTAINTY_ASSIGNED_CONTEXT((#814))
GLOBAL_UNIT_ASSIGNED_CONTEXT((#818,#820,#821))
REPRESENTATION_CONTEXT('','3D')
);
#817=(
GEOMETRIC_REPRESENTATION_CONTEXT(3)
GLOBAL_UNCERTAINTY_ASSIGNED_CONTEXT((#815))
GLOBAL_UNIT_ASSIGNED_CONTEXT((#818,#820,#821))
REPRESENTATION_CONTEXT('','3D')
);
#818=(
LENGTH_UNIT()
NAMED_UNIT(*)
SI_UNIT(.MILLI.,.METRE.)
);
#819=(
LENGTH_UNIT()
NAMED_UNIT(*)
SI_UNIT($,.METRE.)
);
#820=(
NAMED_UNIT(*)
PLANE_ANGLE_UNIT()
SI_UNIT($,.RADIAN.)
);
#821=(
NAMED_UNIT(*)
SI_UNIT($,.STERADIAN.)
SOLID_ANGLE_UNIT()
);
#822=SHAPE_DEFINITION_REPRESENTATION(#823,#824);
#823=PRODUCT_DEFINITION_SHAPE('',$,#826);
#824=SHAPE_REPRESENTATION('',(#325),#816);
#825=PRODUCT_DEFINITION_CONTEXT('part definition',#830,'design');
#826=PRODUCT_DEFINITION('Bending_pipe','Bending_pipe v1',#827,#825);
#827=PRODUCT_DEFINITION_FORMATION('',$,#832);
#828=PRODUCT_RELATED_PRODUCT_CATEGORY('Bending_pipe v1',
'Bending_pipe v1',(#832));
#829=APPLICATION_PROTOCOL_DEFINITION('international standard',
'automotive_design',2009,#830);
#830=APPLICATION_CONTEXT(
'Core Data for Automotive Mechanical Design Process');
#831=PRODUCT_CONTEXT('part definition',#830,'mechanical');
#832=PRODUCT('Bending_pipe','Bending_pipe v1',$,(#831));
#833=PRESENTATION_STYLE_ASSIGNMENT((#834));
#834=SURFACE_STYLE_USAGE(.BOTH.,#835);
#835=SURFACE_SIDE_STYLE('',(#836));
#836=SURFACE_STYLE_FILL_AREA(#837);
#837=FILL_AREA_STYLE('Steel - Satin',(#838));
#838=FILL_AREA_STYLE_COLOUR('Steel - Satin',#839);
#839=COLOUR_RGB('Steel - Satin',0.627450980392157,0.627450980392157,0.627450980392157);
ENDSEC;
END-ISO-10303-21;
